<svg width="60" height="60" viewBox="0 0 60 60" fill="none" xmlns="http://www.w3.org/2000/svg">
<g clip-path="url(#clip0_2_486)">
<path d="M0 2.8125C0 1.25391 1.11458 0 2.5 0H7.23958C9.53125 0 11.5625 1.5 12.5104 3.75H55.3229C58.0625 3.75 60.0625 6.67969 59.3438 9.65625L55.0729 27.5039C54.1875 31.1836 51.2188 33.75 47.8333 33.75H17.7813L18.3438 37.0898C18.5729 38.4141 19.6042 39.375 20.8021 39.375H50.8333C52.2188 39.375 53.3333 40.6289 53.3333 42.1875C53.3333 43.7461 52.2188 45 50.8333 45H20.8021C17.1979 45 14.1042 42.1172 13.4375 38.1445L8.0625 6.38672C7.98958 5.94141 7.64583 5.625 7.23958 5.625H2.5C1.11458 5.625 0 4.37109 0 2.8125ZM13.3333 54.375C13.3333 53.6363 13.4627 52.9049 13.7139 52.2224C13.9652 51.5399 14.3335 50.9199 14.7978 50.3975C15.2621 49.8752 15.8133 49.4609 16.4199 49.1782C17.0265 48.8955 17.6767 48.75 18.3333 48.75C18.9899 48.75 19.6401 48.8955 20.2468 49.1782C20.8534 49.4609 21.4046 49.8752 21.8689 50.3975C22.3332 50.9199 22.7015 51.5399 22.9527 52.2224C23.204 52.9049 23.3333 53.6363 23.3333 54.375C23.3333 55.1137 23.204 55.8451 22.9527 56.5276C22.7015 57.2101 22.3332 57.8301 21.8689 58.3525C21.4046 58.8748 20.8534 59.2891 20.2468 59.5718C19.6401 59.8545 18.9899 60 18.3333 60C17.6767 60 17.0265 59.8545 16.4199 59.5718C15.8133 59.2891 15.2621 58.8748 14.7978 58.3525C14.3335 57.8301 13.9652 57.2101 13.7139 56.5276C13.4627 55.8451 13.3333 55.1137 13.3333 54.375ZM48.3333 48.75C49.6594 48.75 50.9312 49.3426 51.8689 50.3975C52.8066 51.4524 53.3333 52.8832 53.3333 54.375C53.3333 55.8668 52.8066 57.2976 51.8689 58.3525C50.9312 59.4074 49.6594 60 48.3333 60C47.0073 60 45.7355 59.4074 44.7978 58.3525C43.8601 57.2976 43.3333 55.8668 43.3333 54.375C43.3333 52.8832 43.8601 51.4524 44.7978 50.3975C45.7355 49.3426 47.0073 48.75 48.3333 48.75Z" fill="#333333"/>
</g>
<defs>
<clipPath id="clip0_2_486">
<rect width="60" height="60" fill="white"/>
</clipPath>
</defs>
</svg>
